<svg xmlns="http://www.w3.org/2000/svg" xmlns:xlink="http://www.w3.org/1999/xlink" version="1.1" x="0px" y="0px" viewBox="0 0 90 90" enable-background="new 0 0 90 90" xml:space="preserve"><polygon fill-rule="evenodd" clip-rule="evenodd" points="61.122,53.26 61.122,60.891 47.049,60.891 47.049,68.512 32.992,68.512   32.992,76.141 25.356,76.141 25.356,80.313 37.169,80.313 37.169,72.678 51.221,72.678 51.221,65.063 65.294,65.063 65.294,57.432   72.935,57.432 72.935,53.26 "/><path d="M30.08,40.963l0.209,0.121c0.438,0.801,1.275,1.219,2.141,1.232l0.099,0.057c0.172,0.102,0.219,0.287,0.12,0.453  l-0.542,0.949l-3.026-1.746l0.547-0.945C29.742,40.885,29.908,40.863,30.08,40.963z M39.539,23.25c-0.506,0-1.006,0.15-1.422,0.443  l-7.026,4.691c-0.698,0.465-1.114,1.246-1.114,2.09v8.789c-0.714-0.02-1.422,0.328-1.803,0.986l-0.547,0.943l-3.572-2.063  c-0.719-0.418-1.636-0.172-2.053,0.547l-4.775,8.27c-0.417,0.725-0.172,1.637,0.552,2.051l13.078,7.553  c0.719,0.418,1.636,0.174,2.052-0.545l4.776-8.277c0.417-0.719,0.172-1.637-0.547-2.051l-3.583-2.063l0.547-0.949  c0.349-0.604,0.333-1.328,0.031-1.916c0.521-0.424,0.875-1.072,0.864-1.969v-7.959l2.386-1.594v11.766  c0,1.006,0.552,1.926,1.442,2.396l10.229,5.412l3.51,6.938c1.568,3.426,6.672,0.838,4.834-2.449l-3.896-7.699  c-0.255-0.5-0.65-0.904-1.15-1.166l-6.6-3.506V25.963c0.006-1.494-1.213-2.713-2.708-2.713H39.539z"/><path d="M47.325,33.682l6.875,2.156c2.948,0.926,1.558,5.344-1.391,4.416l-5.484-1.725V33.682z"/><path d="M40.33,46.998l5.422,2.861v3.395c0,0.471-0.119,0.934-0.359,1.344l-5.219,9.1c-1.802,3.131-6.505,0.434-4.703-2.703  l4.859-8.465V46.998z"/><path fill-rule="evenodd" clip-rule="evenodd" d="M46.638,12.791c1.526,2.801,0.453,6.307-2.406,7.84  c-2.854,1.529-6.411,0.494-7.938-2.297c-1.531-2.799-0.458-6.305,2.396-7.834C41.555,8.963,45.106,10,46.638,12.791z"/></svg>