<svg xmlns="http://www.w3.org/2000/svg" xmlns:xlink="http://www.w3.org/1999/xlink" version="1.1" x="0px" y="0px" viewBox="0 0 90 90" enable-background="new 0 0 90 90" xml:space="preserve"><path fill-rule="evenodd" clip-rule="evenodd" d="M58.528,21.707c-1.583,3.672-5.839,5.354-9.511,3.775  c-3.661-1.577-5.349-5.838-3.766-9.5c1.584-3.667,5.839-5.353,9.495-3.77C58.424,13.791,60.106,18.045,58.528,21.707z"/><path d="M34.127,49.66c0.156-0.03,0.318,0.005,0.469,0.089c0.428,1.348,1.776,2.187,3.12,2.125c0.208,0.234,0.245,0.557,0.058,0.833  l-0.709,1.058l-4.088-2.75l0.713-1.052C33.799,49.796,33.955,49.692,34.127,49.66z M49.481,30.103c-0.672,0-1.328,0.219-1.87,0.62  l-8.275,6.145c-0.631,0.476-1.063,1.162-1.209,1.939l-3.416,8.739c-0.058,0.141-0.084,0.276-0.12,0.417  c-0.886-0.12-1.808,0.25-2.339,1.031l-0.708,1.057l-3.078-2.073c-1.292-0.864-3.031-0.525-3.896,0.767l-4.75,7.058  c-0.87,1.29-0.526,3.025,0.766,3.895l13.109,8.819c1.291,0.864,3.025,0.531,3.896-0.762l4.745-7.061  c0.869-1.292,0.531-3.027-0.761-3.896l-3.083-2.074l0.713-1.052c0.495-0.74,0.516-1.661,0.146-2.417  c0.396-0.312,0.744-0.744,0.994-1.333l3.719-8.733l2.178-1.62v10.036c0,0.822,0.281,1.62,0.791,2.265l9.428,12.043l1.844,11.197  c0.594,5.104,8.322,3.838,7.25-1.192L63.575,61.78c-0.099-0.609-0.354-1.183-0.734-1.672l-7.167-9.131l0.042-9.359l2.458,3.525  c0.25,0.35,0.573,0.647,0.943,0.871l6.744,4.125c3.568,2.187,6.844-3.172,3.271-5.355l-6.188-3.781l-6.683-9.563  c-0.589-0.838-1.547-1.338-2.567-1.338H49.481z"/><path d="M46.747,55.01l-1.558,5.828l-7.838,11.621c-3.104,4.125,3.432,8.531,6.094,4.104l8.188-12.125  c0.463-0.687,0.791-1.224,0.791-2.178L46.747,55.01z"/></svg>