<?xml version="1.0" standalone="no"?>
<!DOCTYPE svg PUBLIC "-//W3C//DTD SVG 20010904//EN"
 "http://www.w3.org/TR/2001/REC-SVG-20010904/DTD/svg10.dtd">
<svg version="1.0" xmlns="http://www.w3.org/2000/svg"
 width="454.000000pt" height="607.000000pt" viewBox="0 0 454.000000 607.000000"
 preserveAspectRatio="xMidYMid meet">

<g transform="translate(0.000000,607.000000) scale(0.100000,-0.100000)"
fill="#000000" stroke="none">
<path d="M3294 5970 c-12 -4 -31 -21 -43 -36 -20 -26 -21 -35 -21 -330 l0
-304 -183 0 c-199 0 -214 -4 -236 -57 -8 -21 -11 -153 -9 -481 l3 -451 22 -23
c15 -14 40 -24 70 -28 l48 -5 3 -402 2 -403 -184 0 c-122 0 -194 -4 -211 -12
-48 -22 -55 -52 -55 -233 0 -154 -1 -166 -17 -161 -10 3 -85 19 -167 36 l-149
30 -177 153 -178 152 -7 55 c-23 213 -86 328 -227 420 -89 58 -164 74 -311 67
-67 -3 -147 -13 -177 -22 -149 -45 -274 -145 -336 -270 -49 -100 -57 -162 -39
-320 67 -606 127 -1089 140 -1126 36 -102 94 -175 200 -254 l71 -52 17 -77
c40 -182 8 -353 -93 -501 -17 -25 -164 -167 -326 -316 -162 -149 -305 -287
-318 -308 -93 -147 -67 -336 62 -453 54 -49 105 -74 177 -87 75 -14 165 1 228
37 26 15 204 166 397 336 266 234 365 328 410 387 l59 79 6 -43 c3 -23 14
-143 25 -267 11 -124 25 -243 31 -265 27 -100 126 -207 227 -245 78 -30 186
-30 264 0 75 28 161 106 198 180 53 105 53 114 4 670 -24 278 -51 539 -60 580
-37 173 -120 312 -298 498 -61 64 -119 126 -128 137 -11 13 -25 68 -38 149
-11 71 -19 130 -18 132 2 1 126 -23 276 -54 l272 -56 0 -147 c0 -94 4 -158 12
-174 25 -56 14 -55 688 -55 677 0 669 -1 690 56 6 15 10 255 10 590 l0 564 80
0 c43 0 91 5 105 12 55 25 55 23 55 588 l0 522 -29 29 c-29 29 -31 29 -145 29
l-116 0 0 334 0 335 186 3 186 3 29 33 29 32 0 365 0 365 -29 32 -29 33 -454
2 c-249 1 -463 -2 -474 -7z m796 -425 l0 -245 -335 0 -335 0 0 245 0 245 335
0 335 0 0 -245z m-430 -770 l0 -335 -335 0 -335 0 0 335 0 335 335 0 335 0 0
-335z m290 -920 l0 -405 -405 0 -405 0 0 405 0 405 405 0 405 0 0 -405z
m-2490 -113 c48 -24 129 -106 117 -118 -2 -3 -24 5 -48 16 -54 24 -158 27
-219 5 -150 -53 -227 -234 -161 -380 28 -63 18 -53 329 -342 144 -134 262
-249 262 -255 0 -6 16 -110 35 -232 28 -175 41 -229 60 -261 14 -22 87 -106
162 -187 249 -263 247 -260 309 -943 49 -555 49 -554 -3 -624 -75 -99 -235
-87 -303 24 -20 33 -26 76 -61 468 -42 460 -54 533 -111 638 -70 132 -160 213
-478 431 -238 164 -297 220 -319 307 -19 69 -142 1176 -136 1214 22 144 152
247 336 267 103 11 165 4 229 -28z m5 -281 c17 -10 156 -127 310 -261 154
-133 294 -248 310 -255 17 -7 223 -54 460 -104 403 -86 432 -93 459 -120 54
-54 33 -146 -40 -177 -33 -14 -59 -10 -502 81 -290 60 -479 104 -500 115 -52
31 -630 571 -642 601 -16 39 -4 84 32 114 35 30 72 32 113 6z m2245 -711 l0
-510 -510 0 -510 0 0 74 0 73 88 -18 c215 -45 339 -2 411 143 56 112 38 243
-48 340 -53 61 -103 78 -423 144 l-28 6 0 129 0 129 510 0 510 0 0 -510z
m-2132 -1174 c51 -57 112 -162 112 -194 0 -37 -55 -178 -97 -248 -23 -38 -61
-91 -84 -118 -69 -78 -705 -636 -744 -652 -19 -8 -47 -14 -62 -14 -44 1 -108
34 -133 70 -31 43 -38 124 -16 172 10 21 123 131 299 291 155 141 301 281 324
310 109 140 173 324 173 500 l0 58 90 -62 c49 -33 111 -85 138 -113z"/>
<path d="M1651 5673 c-27 -25 -32 -39 -45 -135 -16 -110 -15 -129 13 -162 25
-29 59 -38 98 -25 43 14 59 45 72 143 17 122 15 144 -18 177 -38 38 -80 39
-120 2z"/>
<path d="M2003 5419 c-132 -104 -153 -128 -153 -171 0 -54 35 -88 89 -88 35 0
53 10 138 78 121 97 128 105 128 154 0 31 -7 45 -28 64 -48 41 -84 33 -174
-37z"/>
<path d="M1065 5152 c-94 -28 -164 -71 -241 -147 -114 -112 -164 -232 -164
-390 0 -167 48 -284 165 -401 110 -109 241 -164 393 -164 358 0 629 341 547
688 -43 180 -180 334 -360 402 -83 32 -254 38 -340 12z m292 -194 c75 -28 155
-104 195 -186 30 -61 33 -75 33 -162 0 -82 -4 -103 -27 -152 -35 -76 -95 -138
-170 -179 -60 -33 -68 -34 -168 -34 -95 0 -111 3 -162 28 -79 39 -143 104
-181 185 -27 59 -31 77 -31 153 0 80 3 92 37 162 89 180 283 256 474 185z"/>
<path d="M2007 5040 c-52 -41 -43 -126 16 -153 53 -24 213 -41 248 -27 37 16
62 62 54 99 -11 52 -44 71 -146 86 -124 19 -142 19 -172 -5z"/>
<path d="M541 2214 c-38 -31 -40 -64 -10 -152 24 -71 79 -160 136 -220 35 -36
46 -42 82 -42 33 0 47 6 66 26 40 43 33 80 -25 153 -57 71 -70 95 -94 168 -30
90 -95 118 -155 67z"/>
<path d="M213 2156 c-38 -33 -36 -84 9 -203 47 -125 118 -240 204 -332 63 -67
75 -75 107 -75 65 0 114 72 86 126 -7 13 -36 49 -65 81 -72 77 -128 175 -170
293 -19 55 -44 107 -55 117 -30 25 -82 22 -116 -7z"/>
</g>
</svg>
