<?xml version="1.0" standalone="no"?>
<!DOCTYPE svg PUBLIC "-//W3C//DTD SVG 20010904//EN"
 "http://www.w3.org/TR/2001/REC-SVG-20010904/DTD/svg10.dtd">
<svg version="1.0" xmlns="http://www.w3.org/2000/svg"
 width="394.000000pt" height="609.000000pt" viewBox="0 0 394.000000 609.000000"
 preserveAspectRatio="xMidYMid meet">

<g transform="translate(0.000000,609.000000) scale(0.100000,-0.100000)"
fill="#000000" stroke="none">
<path d="M568 6034 c-15 -8 -32 -23 -38 -34 -7 -12 -10 -288 -10 -808 0 -771
0 -790 20 -814 18 -24 19 -28 4 -70 -13 -38 -14 -133 -12 -679 l3 -634 32 -68
c58 -123 101 -157 398 -318 l265 -144 0 -326 0 -326 -106 -228 c-61 -132 -114
-261 -124 -304 -24 -96 -74 -641 -68 -741 5 -91 39 -162 106 -221 66 -58 139
-82 237 -77 128 5 223 65 278 175 32 63 32 62 67 404 20 201 36 318 51 365 23
74 140 316 145 299 2 -5 22 -98 44 -205 72 -336 115 -441 312 -756 115 -183
150 -222 238 -262 70 -33 196 -36 278 -8 111 38 205 160 218 284 10 89 -13
148 -122 323 -185 295 -210 359 -284 743 l-40 210 0 325 0 326 258 155 c270
163 345 221 393 305 58 101 60 131 57 775 -2 464 -6 590 -16 611 -13 24 -11
28 17 57 l31 30 0 792 c0 548 -3 798 -11 812 -27 49 12 48 -1336 48 -1091 -1
-1262 -3 -1285 -16z m2442 -839 l0 -665 -1155 0 -1155 0 0 665 0 665 1155 0
1155 0 0 -665z m-2109 -870 c16 -9 39 -30 49 -48 19 -31 20 -54 20 -537 0
-505 0 -506 23 -550 25 -50 57 -73 218 -160 167 -90 125 -84 590 -88 550 -5
533 -8 748 170 69 57 134 116 145 131 20 28 21 42 26 515 4 434 7 490 22 518
18 33 71 64 107 64 40 0 90 -28 111 -62 19 -32 20 -49 20 -603 0 -362 -4 -584
-10 -607 -23 -83 -58 -111 -370 -299 -237 -143 -298 -185 -312 -211 -16 -30
-18 -69 -18 -390 l0 -358 50 -260 c73 -376 112 -480 290 -765 108 -173 110
-177 110 -215 0 -116 -129 -186 -242 -131 -39 19 -55 39 -155 198 -194 312
-210 355 -313 838 -39 182 -76 341 -83 354 -15 29 -70 54 -100 45 -12 -3 -30
-14 -40 -23 -21 -18 -248 -477 -278 -561 -36 -101 -50 -180 -79 -471 -16 -159
-35 -299 -41 -312 -21 -41 -52 -67 -92 -78 -49 -13 -89 -4 -129 29 -61 52 -62
56 -28 417 21 223 37 346 51 391 11 35 61 151 111 257 50 105 97 209 104 231
11 30 14 121 14 417 0 378 0 378 -22 403 -13 14 -144 91 -293 172 -148 80
-284 157 -302 170 -17 13 -44 50 -60 81 l-28 58 -3 560 c-2 308 0 579 3 602
14 96 106 149 186 108z m1653 -2 c-5 -10 -11 -235 -14 -499 l-5 -482 -118 -96
c-76 -61 -132 -99 -158 -106 -26 -7 -180 -10 -447 -8 l-407 3 -122 65 -123 65
0 491 c0 392 -3 500 -14 537 l-14 47 715 0 c678 0 715 -1 707 -17z"/>
<path d="M1726 4209 c-166 -39 -315 -190 -361 -364 -79 -306 162 -615 480
-615 375 0 612 392 440 730 -54 106 -172 203 -293 240 -69 22 -195 26 -266 9z
m250 -204 c189 -84 240 -340 96 -488 -65 -68 -114 -90 -207 -95 -74 -4 -89 -1
-144 23 -66 30 -116 78 -153 147 -19 36 -23 58 -23 133 0 78 4 97 27 141 78
149 250 208 404 139z"/>
<path d="M3320 2877 c-14 -7 -34 -28 -45 -47 -21 -35 -117 -134 -176 -181 -29
-23 -34 -33 -34 -69 0 -52 38 -90 89 -90 68 0 203 113 267 225 46 79 36 135
-26 161 -41 17 -44 17 -75 1z"/>
<path d="M3623 2715 c-12 -9 -37 -43 -55 -76 -42 -80 -152 -197 -239 -254 -78
-53 -99 -77 -99 -118 0 -41 49 -87 93 -87 75 0 272 161 364 296 90 133 101
178 54 225 -34 33 -82 39 -118 14z"/>
<path d="M471 1799 c-93 -92 -180 -312 -197 -496 -7 -70 -6 -72 24 -102 55
-55 145 -31 156 42 3 18 10 65 16 106 14 96 56 202 114 289 56 84 60 120 17
163 -41 40 -89 40 -130 -2z"/>
<path d="M793 1613 c-30 -6 -77 -64 -114 -140 -33 -70 -63 -203 -54 -244 7
-31 40 -64 73 -74 52 -15 112 38 112 98 0 42 38 150 70 197 16 25 30 55 30 68
0 38 -27 79 -61 91 -18 6 -32 10 -33 10 -1 -1 -11 -4 -23 -6z"/>
</g>
</svg>
